<svg width="23" height="36" viewBox="0 0 23 36" fill="none" xmlns="http://www.w3.org/2000/svg">
    <path d="M23 32.6701L22.5862 36.0001L19.7931 33.6901L13.1724 17.8501C14.3103 17.7001 15.4138 17.3701 16.4138 16.8901L23 32.6701Z" fill="#3C7CDC"/>
    <path d="M6.62071 16.8901C7.62071 17.3701 8.72415 17.7001 9.89657 17.8501L3.27588 33.6901L0.448291 36.0001L1.43969e-05 32.6701L6.62071 16.8901Z" fill="#083043"/>
    <path d="M4.62069 9C4.62069 6.21 6.82759 3.87 9.79311 3.21V0H13.2414V3.21C16.2069 3.87 18.4138 6.21 18.4138 9C18.4138 12.3 15.3103 15 11.5172 15C7.72414 15 4.62069 12.3 4.62069 9ZM11.5172 12C13.4138 12 14.9655 10.65 14.9655 9C14.9655 7.35 13.4138 6 11.5172 6C9.62069 6 8.06897 7.35 8.06897 9C8.06897 10.65 9.62069 12 11.5172 12Z" fill="#3BD981"/>
</svg>
