<svg width="24" height="40" viewBox="0 0 24 40" fill="none" xmlns="http://www.w3.org/2000/svg">
    <path d="M24 36.3002L23.5682 40.0002L20.6537 37.4335L13.7451 19.8335C14.9325 19.6668 16.084 19.3002 17.1274 18.7668L24 36.3002Z" fill="#3C7CDC"/>
    <path d="M6.90856 18.7668C7.95204 19.3002 9.10346 19.6668 10.3269 19.8335L3.4183 37.4335L0.467779 40.0002L1.22755e-05 36.3002L6.90856 18.7668Z" fill="#083043"/>
    <path d="M4.82159 10C4.82159 6.9 7.12444 4.3 10.2189 3.56667V0H13.8171V3.56667C16.9115 4.3 19.2144 6.9 19.2144 10C19.2144 13.6667 15.976 16.6667 12.018 16.6667C8.05997 16.6667 4.82159 13.6667 4.82159 10ZM12.018 13.3333C13.997 13.3333 15.6162 11.8333 15.6162 10C15.6162 8.16667 13.997 6.66667 12.018 6.66667C10.039 6.66667 8.41979 8.16667 8.41979 10C8.41979 11.8333 10.039 13.3333 12.018 13.3333Z" fill="#3BD981"/>
</svg>
