<svg width="16" height="16" viewBox="0 0 16 16" fill="none" xmlns="http://www.w3.org/2000/svg">
    <g clip-path="url(#clip0_11_43)">
        <path fill-rule="evenodd" clip-rule="evenodd" d="M7 1L3 5H7V1Z" fill="#9AA7B0" fill-opacity="0.8"/>
        <path fill-rule="evenodd" clip-rule="evenodd" d="M8 1V6H3V15H13V1H8Z" fill="#9AA7B0" fill-opacity="0.8"/>
        <path d="M16 15.2472L15.8561 16.2917L14.8846 15.5672L12.5817 10.5988C12.9775 10.5518 13.3613 10.4483 13.7091 10.2977L16 15.2472Z" fill="#3C7CDC"/>
        <path d="M10.3029 10.2977C10.6507 10.4483 11.0345 10.5518 11.4423 10.5988L9.13943 15.5672L8.15593 16.2917L8 15.2472L10.3029 10.2977Z" fill="#083043"/>
        <path d="M9.6072 7.82292C9.6072 6.94781 10.3748 6.21385 11.4063 6.00684V5H12.6057V6.00684C13.6372 6.21385 14.4048 6.94781 14.4048 7.82292C14.4048 8.85799 13.3253 9.70486 12.006 9.70486C10.6867 9.70486 9.6072 8.85799 9.6072 7.82292ZM12.006 8.76389C12.6657 8.76389 13.2054 8.34045 13.2054 7.82292C13.2054 7.30538 12.6657 6.88194 12.006 6.88194C11.3463 6.88194 10.8066 7.30538 10.8066 7.82292C10.8066 8.34045 11.3463 8.76389 12.006 8.76389Z" fill="#3BD981"/>
    </g>
    <defs>
        <clipPath id="clip0_11_43">
            <rect width="16" height="16" fill="white"/>
        </clipPath>
    </defs>
</svg>
